<svg width="93" height="28" viewBox="0 0 93 28" fill="none" xmlns="http://www.w3.org/2000/svg">
<path d="M5.20563 20.9014V17.9437H17.5099V20.9014H5.20563ZM0 27.6056L9.74084 1.97183H13.0535L22.8732 27.6056H19.4817L10.9239 4.4169H11.8704L3.31268 27.6056H0Z" fill="white"/>
<path d="M26.6243 0H29.7793V27.6056H26.6243V0Z" fill="white"/>
<path d="M49.2794 21.2563H52.2372C52.0269 22.5446 51.5536 23.7014 50.8175 24.7268C50.1076 25.7258 49.1611 26.5277 47.978 27.1324C46.8212 27.7108 45.4804 28 43.9555 28C42.1151 28 40.4588 27.5662 38.9865 26.6986C37.5142 25.8047 36.3442 24.5953 35.4766 23.0704C34.6353 21.5192 34.2146 19.7577 34.2146 17.7859C34.2146 15.8141 34.6222 14.0526 35.4372 12.5014C36.2785 10.9502 37.4222 9.7277 38.8682 8.8338C40.3142 7.93991 41.9442 7.49296 43.7583 7.49296C45.6776 7.49296 47.2945 7.92676 48.609 8.79437C49.9499 9.63568 50.9358 10.8845 51.5668 12.5408C52.224 14.1709 52.4869 16.1822 52.3555 18.5746H37.3696C37.501 19.8629 37.856 20.9934 38.4344 21.9662C39.0128 22.939 39.7752 23.7014 40.7217 24.2535C41.6682 24.7793 42.7461 25.0423 43.9555 25.0423C45.2963 25.0423 46.4269 24.7005 47.347 24.0169C48.2935 23.307 48.9377 22.3869 49.2794 21.2563ZM43.8766 10.4507C42.2466 10.4507 40.8794 10.9239 39.7752 11.8704C38.671 12.8169 37.9348 14.1052 37.5668 15.7352H49.1217C49.0165 14 48.4513 12.6854 47.4259 11.7915C46.4269 10.8977 45.2438 10.4507 43.8766 10.4507Z" fill="white"/>
<path d="M72.015 7.88733L64.3643 18.6141L58.0938 27.6056H54.2685L62.4319 16.2873L68.1896 7.88733H72.015ZM54.2685 7.88733H58.2121L64.3248 16.3662L72.4093 27.6056H68.584L62.1952 18.6141L54.2685 7.88733Z" fill="white"/>
<circle cx="82.8293" cy="17.9201" r="8.2043" stroke="url(#paint0_linear_80_83)" stroke-width="3"/>
<path d="M82.0958 13.967C82.8414 13.967 83.4564 14.0591 83.9407 14.2432C84.425 14.4196 84.7864 14.692 85.0247 15.0602C85.263 15.4208 85.3821 15.8772 85.3821 16.4295C85.3821 16.8054 85.3091 17.1353 85.163 17.4191C85.0247 17.6953 84.8363 17.9331 84.598 18.1326C84.3674 18.3243 84.1175 18.4816 83.8485 18.6043L86.27 22.183H84.3328L82.3725 19.0301H81.4385V22.183H79.6973V13.967H82.0958ZM81.9689 15.3939H81.4385V17.6147H82.0035C82.3879 17.6147 82.6992 17.5726 82.9375 17.4882C83.1758 17.4038 83.3488 17.2772 83.4564 17.1084C83.5641 16.932 83.6179 16.721 83.6179 16.4756C83.6179 16.2147 83.5564 16.0076 83.4334 15.8542C83.3181 15.6931 83.1374 15.578 82.8914 15.509C82.6531 15.4323 82.3456 15.3939 81.9689 15.3939Z" fill="url(#paint1_linear_80_83)"/>
<defs>
<linearGradient id="paint0_linear_80_83" x1="82.8293" y1="8.21582" x2="82.8293" y2="27.6244" gradientUnits="userSpaceOnUse">
<stop stop-color="#FFF45A"/>
<stop offset="0.51" stop-color="#72FF76"/>
<stop offset="1" stop-color="#72B4FF"/>
</linearGradient>
<linearGradient id="paint1_linear_80_83" x1="82.9837" y1="13.967" x2="82.9837" y2="22.183" gradientUnits="userSpaceOnUse">
<stop stop-color="#FFF45A"/>
<stop offset="0.51" stop-color="#72FF76"/>
<stop offset="1" stop-color="#72B4FF"/>
</linearGradient>
</defs>
</svg>
