<svg width="256" height="256" viewBox="0 0 256 256" fill="none" xmlns="http://www.w3.org/2000/svg">
<circle cx="128" cy="128" r="128" fill="black"/>
<path d="M93.8574 147.373H119.15C118.813 154.696 116.838 161.152 113.225 166.74C109.611 172.329 104.601 176.689 98.1934 179.82C91.834 182.904 84.3184 184.445 75.6465 184.445C68.6126 184.445 62.3255 183.265 56.7852 180.904C51.293 178.544 46.6198 175.147 42.7656 170.715C38.9596 166.283 36.0449 160.911 34.0215 154.6C32.0462 148.288 31.0586 141.182 31.0586 133.281V127.572C31.0586 119.671 32.0944 112.565 34.166 106.254C36.2858 99.8945 39.2728 94.4987 43.127 90.0664C47.0293 85.5859 51.7025 82.1654 57.1465 79.8047C62.5905 77.444 68.6367 76.2637 75.2852 76.2637C84.4388 76.2637 92.1712 77.9017 98.4824 81.1777C104.794 84.4538 109.684 88.9583 113.152 94.6914C116.621 100.376 118.669 106.856 119.295 114.131H94.002C93.9056 110.18 93.2311 106.88 91.9785 104.23C90.7259 101.533 88.7507 99.5091 86.0527 98.1602C83.3548 96.8112 79.7656 96.1367 75.2852 96.1367C72.1536 96.1367 69.4316 96.7148 67.1191 97.8711C64.8066 99.0273 62.8796 100.858 61.3379 103.363C59.7962 105.868 58.64 109.12 57.8691 113.119C57.1465 117.07 56.7852 121.839 56.7852 127.428V133.281C56.7852 138.87 57.1224 143.639 57.7969 147.59C58.4714 151.54 59.5553 154.768 61.0488 157.273C62.5423 159.779 64.4694 161.633 66.8301 162.838C69.2389 163.994 72.1777 164.572 75.6465 164.572C79.5007 164.572 82.7526 163.97 85.4023 162.766C88.0521 161.513 90.0996 159.634 91.5449 157.129C92.9902 154.576 93.7611 151.324 93.8574 147.373ZM173.925 158.213L195.821 77.7812H224.222L188.739 183H170.384L173.925 158.213ZM154.052 77.7812L175.948 158.213L179.634 183H161.062L125.796 77.7812H154.052Z" fill="url(#paint0_linear_168_438)"/>
<defs>
<linearGradient id="paint0_linear_168_438" x1="141" y1="46" x2="141" y2="170" gradientUnits="userSpaceOnUse">
<stop stop-color="#FFF45A"/>
<stop offset="0.51" stop-color="#72FF76"/>
<stop offset="1" stop-color="#72B4FF"/>
</linearGradient>
</defs>
</svg>
