<svg width="32" height="32" viewBox="0 0 32 32" fill="none" xmlns="http://www.w3.org/2000/svg">
<circle cx="16" cy="16" r="14.5" stroke="url(#paint0_linear_175_312)" stroke-width="3"/>
<path d="M14.7904 9.4823C16.0199 9.4823 17.0339 9.63408 17.8324 9.93763C18.6309 10.2285 19.2266 10.6775 19.6195 11.2847C20.0124 11.8791 20.2089 12.6317 20.2089 13.5423C20.2089 14.1621 20.0885 14.706 19.8477 15.1739C19.6195 15.6293 19.309 16.0214 18.9161 16.3502C18.5358 16.6664 18.1239 16.9257 17.6803 17.1281L21.6728 23.0284H18.4788L15.2467 17.83H13.7068V23.0284H10.8359V9.4823H14.7904ZM14.5813 11.8348H13.7068V15.4965H14.6384C15.2721 15.4965 15.7854 15.4269 16.1783 15.2878C16.5712 15.1486 16.8564 14.9399 17.0339 14.6617C17.2113 14.3708 17.3 14.023 17.3 13.6182C17.3 13.1882 17.1986 12.8467 16.9958 12.5937C16.8057 12.3281 16.5079 12.1384 16.1023 12.0246C15.7094 11.8981 15.2024 11.8348 14.5813 11.8348Z" fill="url(#paint1_linear_175_312)"/>
<defs>
<linearGradient id="paint0_linear_175_312" x1="16" y1="0" x2="16" y2="32" gradientUnits="userSpaceOnUse">
<stop stop-color="#FFF45A"/>
<stop offset="0.51" stop-color="#72FF76"/>
<stop offset="1" stop-color="#72B4FF"/>
</linearGradient>
<linearGradient id="paint1_linear_175_312" x1="16.2544" y1="9.4823" x2="16.2544" y2="23.0284" gradientUnits="userSpaceOnUse">
<stop stop-color="#FFF45A"/>
<stop offset="0.51" stop-color="#72FF76"/>
<stop offset="1" stop-color="#72B4FF"/>
</linearGradient>
</defs>
</svg>
